<svg id="Lag_1" data-name="Lag 1" xmlns="http://www.w3.org/2000/svg" viewBox="0 0 600 600"><defs><style>.cls-1{fill:#1a1918;fill-rule:evenodd;}</style></defs><title>k-logo</title><path class="cls-1" d="M74.37,360.26c.15-1.28.31-2.36.38-3.44a24.51,24.51,0,0,0,.13-4c-.12-1.46-.9-1.72-2.07-.81a8.29,8.29,0,0,0-1.48,1.48,46.88,46.88,0,0,0-5.74,8.78,48.64,48.64,0,0,1-3.19,5.62,7.73,7.73,0,0,1-2.4,2.33,2.72,2.72,0,0,1-4.16-1.6,10.6,10.6,0,0,1-.71-4.76c.38-3.16.78-6.31,1.16-9.47a80.2,80.2,0,0,1,4.44-17.51,22.26,22.26,0,0,0,.82-4.42c.26-1.92.41-3.86.68-5.77a253.46,253.46,0,0,1,5.08-24.86c1.06-4.41,2.41-8.71,3.89-13a41.47,41.47,0,0,0,1-4.73,27.33,27.33,0,0,1,3.47-8.67,56.1,56.1,0,0,0,6.05-13.87,21.1,21.1,0,0,0,1-5.72,21.43,21.43,0,0,0-.88-5.71,36.92,36.92,0,0,1-1.38-8.43,49.35,49.35,0,0,1,.56-5.78,29,29,0,0,0,.2-4.83,21.34,21.34,0,0,1,.77-7.68,13.56,13.56,0,0,0,.26-4.79,84.05,84.05,0,0,1-.34-9.51,15.7,15.7,0,0,1,3.82-9.6q3.77-4.44,7.59-8.83a30.46,30.46,0,0,0,3.7-6.05c.8-1.52,1.64-3,2.54-4.5a7.61,7.61,0,0,1,4-3.11,5.71,5.71,0,0,0,2.71-7.79,4.06,4.06,0,0,0-1.5-1.41,7.21,7.21,0,0,1-3.89-5.63,3.93,3.93,0,0,0-1.47-2.6c-.91-.76-1.87-1.46-2.77-2.23a26.18,26.18,0,0,1-2.27-2.06,5.83,5.83,0,0,1,1-9.23,16.79,16.79,0,0,1,3.82-1.68c1.16-.4,2.4-.61,3.6-.91a3.18,3.18,0,0,0,2.3-2.24,47.49,47.49,0,0,1,2.92-7c2.25-4,5.26-7.4,9.68-9.14a12.61,12.61,0,0,1,9.34,0,10.31,10.31,0,0,1,3.35,2.18c1.58,1.53,3,3.26,4.41,4.94a17.25,17.25,0,0,1,3.73,8.83c.3,1.86.54,3.74.69,5.62a5.63,5.63,0,0,0,2.52,4.47,16.53,16.53,0,0,0,1.79,1.1,8.89,8.89,0,0,1,3.95,4.35,5.51,5.51,0,0,1-.25,5.42,9.73,9.73,0,0,1-3.74,3.71c-.86.46-1.75.84-2.64,1.23a5.42,5.42,0,0,0-2.69,2,11.16,11.16,0,0,1-3.57,3.47,4.08,4.08,0,0,0-2.09,3.73c0,3.45-.07,6.89-.13,10.34a1.59,1.59,0,0,0,.94,1.55,6.39,6.39,0,0,1,2.7,8.43,13.23,13.23,0,0,1-.74,1.25,12,12,0,0,1-.91,1.33c-1.9,2.25-1.42,4.68-.6,7.16a16.24,16.24,0,0,1,.92,3.23,2.74,2.74,0,0,0,1.67,2.37c1,.48,2.08.88,3.1,1.38,1.61.79,2.18,1.9,1.53,3.57a28.37,28.37,0,0,1-2.35,4.59,12.16,12.16,0,0,0-2.14,5.5c-.28,3.06-.71,6.1-1.09,9.15-.07.53-.2,1.05-.28,1.58-.15,1.06.36,1.56,1.4,1.31a2.66,2.66,0,0,0,1.26-.67,35.81,35.81,0,0,0,2.34-2.85c.48-.64.76-1.44,1.28-2.05a1.61,1.61,0,0,1,2.86.45,5.63,5.63,0,0,1,.28,2.21,28.43,28.43,0,0,1-.39,2.88c-.28,2,.22,3.07,2,4A30.45,30.45,0,0,0,156.49,246a24,24,0,0,1,8.4,2.24,2,2,0,0,0,2.25-.17,8.91,8.91,0,0,0,1-.82,7.26,7.26,0,0,1,4.85-2.31,2.67,2.67,0,0,0,2-1.16A33,33,0,0,0,177,241c3.05-5.21,7.09-9.64,11.18-14a51.09,51.09,0,0,0,5.9-7.65,45.89,45.89,0,0,0,5-9.87c1-2.93,3.27-5.16,5.23-7.53.72-.87,1.57-1.64,2.27-2.52a8.41,8.41,0,0,0,1.35-2.18,3.88,3.88,0,0,0-.3-3.63,14.69,14.69,0,0,0-8.16-6.73,5.26,5.26,0,0,1-3.12-3.31c-2.11-5.66-4.11-11.34-4.88-17.39a19.6,19.6,0,0,0-6.63-12.77c-1.3-1.13-2.49-2.39-3.75-3.57a8.84,8.84,0,0,1-2.55-4.23c-1.56-5.72-3.16-11.43-4.69-17.16-.6-2.23-1.1-4.5-1.62-6.75a6.71,6.71,0,0,1,2.91-7.35c2.82-2.07,5.72-4,8.56-6.09a8.24,8.24,0,0,0,1.53-1.42A54.32,54.32,0,0,1,195,97.68a.6.6,0,0,1,.13-.09c4.45-2.18,8.84-4.53,13.9-5a22.54,22.54,0,0,0,7.3-2,47.93,47.93,0,0,1,8.89-2.92c2-.47,4-1.29,6-1.87,5-1.42,9.95-2.83,14.94-4.17a18.1,18.1,0,0,1,3.52-.5,3.48,3.48,0,0,1,3.79,2.4c.56,1.46,1.06,3,1.57,4.42,1.13,3.21,2,4.33,6,4.49,1,0,1.94,0,2.91,0a11.17,11.17,0,0,1,5,1,3.88,3.88,0,0,0,4-.27,7,7,0,0,1,8.21.34A4.26,4.26,0,0,0,286,94a5.64,5.64,0,0,1,6.49.71,9.12,9.12,0,0,1,3.28,4.1,9.34,9.34,0,0,0,1.73,2.5,3.65,3.65,0,0,0,4.4,1,49.93,49.93,0,0,0,5.83-2.74c2.18-1.25,3.75-1.47,5.62.22a49.1,49.1,0,0,1,5.3,5.85,41.64,41.64,0,0,1,3.36,5.14c.83,1.44,1.49,3,2.18,4.5a15.63,15.63,0,0,0,3.39,4.68c1.81,1.77,3.46,3.71,5.1,5.63a7.42,7.42,0,0,1,1.79,4.43,6.5,6.5,0,0,0,2,4.3c1.11,1.11,2.2,2.23,3.33,3.3a11.26,11.26,0,0,1,3.45,5.74c.32,1.36.66,2.72,1,4.07a5,5,0,0,1-1,4.85c-.52.62-1,1.25-1.54,1.88a14.81,14.81,0,0,0-3.1,6.32,13.12,13.12,0,0,1-5.23,8.1,16,16,0,0,0-2.46,2.54,4.87,4.87,0,0,0-1,3,23.83,23.83,0,0,1-.27,3.06,8.88,8.88,0,0,1-.79,2.61,25,25,0,0,1-4.71,6.53,28,28,0,0,0-5.93,7.42,13.72,13.72,0,0,0-1.14,3.16,3.38,3.38,0,0,0,.27,1.69,16.5,16.5,0,0,0,3.35,5.29,49.79,49.79,0,0,1,4.06,5.23c1.93,3,2.51,6.37,2.93,9.83a23.15,23.15,0,0,1-.65,8.17c-.15.63-.3,1.26-.41,1.89a42.87,42.87,0,0,1-3.26,9.46c-1.39,3.27-2.63,6.6-4,9.89a7.43,7.43,0,0,0,.26,5.67,27.66,27.66,0,0,0,1.5,3.22,48.83,48.83,0,0,1,5.39,14.82,33.2,33.2,0,0,0,3.28,9.44,48.32,48.32,0,0,1,2.45,6.49,65,65,0,0,0,3.64,8.25,10.6,10.6,0,0,0,2.55,2.89,77.82,77.82,0,0,1,6.81,6.9,45.35,45.35,0,0,0,6.29,5.78,76,76,0,0,1,9.12,8.45c2.24,2.4,4.79,4.5,7.21,6.74l.12.1c2,1.46,3,1.26,4-1,.88-2,1.66-4.1,2.38-6.19,1.76-5.09,3.59-10.16,5.12-15.32.74-2.51.83-5.21,1.3-7.81.72-4,1.56-7.93,2.26-11.91.46-2.7.67-5.46,1.16-8.16.79-4.4,1.71-8.78,2.59-13.16.57-2.86,1.12-5.72,1.76-8.55a20.44,20.44,0,0,1,1.26-4c1.82-4,2.55-8.23,3.63-12.4.47-1.82.92-3.66,1.48-5.46a57,57,0,0,0,2.45-12,36.48,36.48,0,0,1,.92-5.58,74.56,74.56,0,0,0,2.58-15.27,23.39,23.39,0,0,1,.71-4.3,13.22,13.22,0,0,1,2.23-5c.5-.7.92-1.46,1.36-2.2a6,6,0,0,0,.7-4.21,18.35,18.35,0,0,1,.29-7.23,22.09,22.09,0,0,0,.38-2.55,3.21,3.21,0,0,0-1.08-2.91,7.51,7.51,0,0,1-2.4-4.13c-.27-1-.55-2.08-.85-3.11-.48-1.62-1.48-2.18-3.05-1.68-.83.25-1.65.53-2.45.84a34.24,34.24,0,0,1-8.67,1.87,10.53,10.53,0,0,1-4.3-.49,17.48,17.48,0,0,0-3.33-.49,22.5,22.5,0,0,1-2.73-.23,12.06,12.06,0,0,0-5.91.2,59.65,59.65,0,0,1-12.33,1.57,9.2,9.2,0,0,1-2.72-.23,1.68,1.68,0,0,1-.86-2.9,15.73,15.73,0,0,1,2.76-2.46,5,5,0,0,1,2.27-.7c1.27-.13,2.15-.52,2.37-1.93a2.08,2.08,0,0,1,2.24-1.72c1.72-.08,3.45,0,5.17,0a5.07,5.07,0,0,0,1.29,0c.7-.21,1.65-.37,2-.88,1.81-2.73,4.52-4.45,7-6.44a11.86,11.86,0,0,0,4.51-6.71A24.9,24.9,0,0,0,386,138c.15-3.93.13-7.87.3-11.8a5.28,5.28,0,0,0-1.73-4.62c-2.85-2.48-4.83-5.66-6.75-8.84a5.6,5.6,0,0,1-.75-3.23c.19-2.46.67-4.9,1.06-7.34.3-1.86.7-3.7.93-5.57a3.55,3.55,0,0,0-.95-3.14,4,4,0,0,0-4.37-.63c-1,.44-1.95.91-2.94,1.34a5,5,0,0,1-6-.93,9.28,9.28,0,0,0-1.64-1.3A9.88,9.88,0,0,1,359.08,87,11.7,11.7,0,0,0,355,81.71a4.94,4.94,0,0,1-2-6c.64-2.11,1-4.31,2.15-6.24a8.52,8.52,0,0,1,4.05-3.56A15.85,15.85,0,0,0,363,63.62a19,19,0,0,1,9.94-4,15,15,0,0,1,7.58,1.23,7,7,0,0,1,2.16,1.4,83.24,83.24,0,0,1,6,5.91A12.58,12.58,0,0,1,392,75.26c.15,1.78.85,2.82,2.59,3.16a3.32,3.32,0,0,1,.9.36,14.86,14.86,0,0,0,7.21,2,13.15,13.15,0,0,1,3.68,1.11c3,1,5.88,2.11,8.89,2.94a40.86,40.86,0,0,0,5.44.7,70.75,70.75,0,0,1,11.47,2.69c3.47,1.07,6.42,3,9.45,4.83,2.54,1.53,4.95,3.25,7.45,4.84,1.21.78,2.46,1.52,3.75,2.19.61.32,1.34.38,2,.65,2.89,1.18,5.78,2.37,8.65,3.61a3.17,3.17,0,0,1,2,2.91,8.81,8.81,0,0,1-.07,1.45c-.1.8-.27,1.59-.38,2.39-.48,3.88-.33,3.82,2.76,5.14,1.64.71,2,1.35,1.85,3.11a2.1,2.1,0,0,0,.75,1.85c1.3,1.28,1.28,1.7.29,3.14a4.61,4.61,0,0,0-.71,1.91c-.24,1.49-1,2.23-2.53,2a11.5,11.5,0,0,1-6.06-2.85c-.8-.72-1.5-1.54-2.27-2.3a1.82,1.82,0,0,0-2.72-.37c-.88.52-1.71,1.14-2.62,1.6-2.21,1.14-3.83.89-5.23-1.14a54.5,54.5,0,0,0-7.42-8.06c-2.19-2.1-4.61-3.88-6.94-5.78-1.24-1-1.54-1.07-3.44-1.21a8,8,0,0,0,0,1.2,9.89,9.89,0,0,0,2.2,4.61c3.22,4,6.08,8.24,8.94,12.48a86.42,86.42,0,0,0,9.5,12.26,41.1,41.1,0,0,1,6.52,9c.77,1.42,1.62,2.8,2.5,4.16a4.62,4.62,0,0,1-.14,5.58c-.25.36-.53.69-.77,1a5.52,5.52,0,0,0-1.06,3.32,55.22,55.22,0,0,0,1.47,10.71,22.94,22.94,0,0,1-1.4,14.56,11.44,11.44,0,0,0-.68,8,62.41,62.41,0,0,1,2,13.24c.24,3.76.51,7.52.77,11.28,0,.11,0,.22,0,.33.47,6.39,1,12.78,1.4,19.18.36,5.43.58,10.87,1,16.29.34,4.68.49,9.37.78,14,.47,7.36,1.36,14.69,2,22,.18,2.1,0,4.22.26,6.31.34,3.21.87,6.4,1.27,9.6.15,1.18.19,2.37.24,3.55.12,2.69.1,5.4.37,8.07a13.08,13.08,0,0,0,2.28,6.32c.81,1.15,1.7,2.24,2.53,3.36a14.14,14.14,0,0,1,2.93,7.76c0,.59.15,1.17.24,1.76A156.4,156.4,0,0,0,480.32,358c1.2,4.24,1.79,8.65,2.64,13,.36,1.85.68,3.71,1.05,5.56.73,3.65,1.46,7.29,2.22,10.93a86.84,86.84,0,0,0,3.69,11.88A78.48,78.48,0,0,1,494.43,416,72.64,72.64,0,0,0,496.77,426c1.37,4.87,2.78,9.77,3.12,14.85.25,3.82.29,7.64.5,11.46.09,1.55.41,3.09.6,4.63a43.85,43.85,0,0,1,.47,4.83,18.72,18.72,0,0,0,1.21,6.8c1.42,3.73,1.77,7.64,2.11,11.57.14,1.5.47,3,.58,4.48.26,3.81.36,7.64.7,11.44a80.89,80.89,0,0,0,1.37,10.56c.58,2.6,2,5,2.85,7.54.92,2.75,1.75,5.55,2.4,8.37.57,2.5-.81,4.14-3.54,4.58-3.62.58-7.24,1.12-10.85,1.72-1.22.2-2.42.53-3.62.83-3.88.94-7.77,2-11.79,1.69-2.27-.15-4.52-.07-6.78,0A58.75,58.75,0,0,1,462.29,530a9.38,9.38,0,0,1-3.11-1.28c-1.93-1.32-1.76-3.38.26-4.53a20.2,20.2,0,0,1,2.06-.93c.74-.32,1.49-.61,2.24-.93a4.31,4.31,0,0,0,2.78-4c.16-4,.34-8.08.35-12.12,0-2-.36-4.08-.5-6.12a53.12,53.12,0,0,1-.2-5.49,15.85,15.85,0,0,0-1.34-7.09,41,41,0,0,1-2.74-10.61c-.77-5-1.55-10-2.42-15-.48-2.71-1.2-5.37-1.7-8.07a31.57,31.57,0,0,1-.46-4.66c-.15-5.23-.11-10.46-.38-15.68s-.76-10.43-1.27-15.63a76.61,76.61,0,0,0-2.78-12.95c-1.93-7-3.82-14-5.86-21A55.19,55.19,0,0,1,445,368.52a21.28,21.28,0,0,0-.95-6.2c-1.21-3.91-2.34-7.85-3.73-11.7a56.58,56.58,0,0,0-3.47-7.65,15.78,15.78,0,0,1-1.62-8.61c.13-3,0-6,0-9,0-2,0-4-.08-6-.23-3.71-.6-7.41-.86-11.12-.17-2.47-.19-4.95-.39-7.43-.17-2.19-.44-4.39-.77-6.57a56,56,0,0,1-.38-12.74c.19-2.52.19-5.06.25-7.6.09-3.17.14-6.35.23-9.53,0-1,.08-2,.16-3.07a73.9,73.9,0,0,0,0-11.62c-.26-3.76-1.09-7.48-.85-11.28a39.12,39.12,0,0,0,.09-4.33,9.85,9.85,0,0,0-.6-2.25c-1.29,0-1.52.85-1.73,1.55-.51,1.76-.92,3.55-1.29,5.34a19.3,19.3,0,0,0-.39,3c-.16,3.32-1.31,6.43-2.08,9.61a56.49,56.49,0,0,0-1.48,18.59,29.81,29.81,0,0,1-.65,7.06c-.4,2.77-.71,5.56-1.26,8.31q-1.18,5.93-2.68,11.8a65,65,0,0,0-2.15,12.38c-.13,2.25-.74,4.47-1.05,6.71-.2,1.54-.3,3.1-.39,4.66-.18,3.28-.4,6.56-.44,9.84a27.63,27.63,0,0,0,.58,4.95,28.59,28.59,0,0,1,.11,8.21c-.28,2.57-.32,5.16-.44,7.74-.24,5.17-.62,10.33-.63,15.5,0,6.14.32,12.28.47,18.43.08,3,.06,5.93.13,8.89.07,2.75.12,5.5.32,8.24.33,4.51-.46,8.93-1.13,13.34a14.79,14.79,0,0,0,1.69,10.11c.87,1.49,1.6,3.06,2.5,4.53a4.74,4.74,0,0,0,3.63,2.67c5.16.42,10,2.07,14.83,3.79,1,.36,2.07.62,3.09,1a14.58,14.58,0,0,1,7.59,5.24c.54.78,1.35,1.38,2,2.12a17,17,0,0,1,2,2.69,2.85,2.85,0,0,1-1,4,6.21,6.21,0,0,1-2.5,1.06,44.63,44.63,0,0,1-6.42.56A66.22,66.22,0,0,1,425,450.83a20,20,0,0,0-3.26-.9,14.58,14.58,0,0,0-7.51,1.47,2.47,2.47,0,0,0-1.37,2.24c-.15,2.2-.33,4.4-.3,6.61.08,5.88-.51,11.73-.79,17.59-.27,5.7,0,11.42,0,17.13,0,2.7.16,5.39.21,8.09.06,3.72.05,7.44.17,11.15.07,2.1.36,4.19.5,6.28.21,3.07.39,6.13.53,9.2a7.09,7.09,0,0,1-.23,1.76,2.7,2.7,0,0,1-2.25,2.25,11,11,0,0,0-1.74.36,9.76,9.76,0,0,0-2.58,1.24c-1.36,1.05-2.54,2.32-3.88,3.41A6.62,6.62,0,0,1,400.1,540a9.4,9.4,0,0,1-6-.13,6.81,6.81,0,0,0-4.3-.19,5.46,5.46,0,0,1-5.63-1.51c-1.53-1.58-3.56-1.71-5.56-1.75a17.59,17.59,0,0,0-5.76.63,8,8,0,0,1-2.72.25,33.18,33.18,0,0,0-8.66.8c-2.32.48-4.7.63-7,1.11a43.06,43.06,0,0,1-10.14.61,28.32,28.32,0,0,0-2.89.22,14.78,14.78,0,0,1-2.1.11,3.09,3.09,0,0,1-2.91-2.78,2.89,2.89,0,0,1,2-3.28c.9-.33,1.88-.43,2.81-.72,1.49-.46,3-.93,4.43-1.5a4.25,4.25,0,0,0,2.5-2.8c.22-.66.46-1.32.63-2,1.89-7.36,3.25-14.84,4.82-22.28a80.44,80.44,0,0,1,2.58-8.49,39.43,39.43,0,0,0,1.92-10.63,196.92,196.92,0,0,1,2.1-20.43c.56-3.73.95-7.48,1.47-11.22.28-2,.75-3.92,1-5.9.28-2.52.48-5,.56-7.58a34.72,34.72,0,0,1,1.11-7.66,55.11,55.11,0,0,0,1.72-13.6c0-2.95.43-5.9.63-8.86.09-1.4.16-2.8.17-4.2,0-2.15.06-4.32-.1-6.46a69.94,69.94,0,0,0-.9-7.37,10.34,10.34,0,0,0-1.43-3.23c-1.8-3-3.73-5.93-5.5-8.95a8.25,8.25,0,0,0-2.26-2.59,29.54,29.54,0,0,1-3.46-3.16,10.16,10.16,0,0,1-2.74-5.05c-.75-3.4-1.29-3.79-4.76-3.34a16.38,16.38,0,0,0-3.43.91,5.36,5.36,0,0,1-6.2-1.42c-1.1-1.19-2.17-2.4-3.17-3.67a130,130,0,0,0-10.21-11.67,125.8,125.8,0,0,1-9.84-11.16c-1.56-2-3.36-3.78-5.11-5.6-1.35-1.4-2.72-2.78-4.2-4-3.64-3.12-7.35-6.16-11-9.25-1.73-1.45-3.49-2.89-5.15-4.42a24.63,24.63,0,0,0-4.86-3.45c-1.81-1-3.52-2.1-5.33-3.06a29.4,29.4,0,0,0-3.71-1.56,3.89,3.89,0,0,0-3.67.57,40.36,40.36,0,0,0-8.18,6.8,32.88,32.88,0,0,1-7,5.51,67.13,67.13,0,0,0-11.08,8.9,53.62,53.62,0,0,1-9.57,7.15c-3.58,2.3-7.31,4.37-10.91,6.65-2.13,1.35-4.15,2.89-6.21,4.36a37.83,37.83,0,0,0-5.1,4.45c-3.22,3.31-7.18,5.67-10.94,8.29-2.52,1.75-5.05,3.5-7.51,5.34-2.78,2.07-4.59,5-6.33,7.89-.91,1.52-1.61,3.18-2.6,4.66-1.64,2.47-1.68,5.16-1.35,7.93.13,1.12.45,2.23.48,3.35a34,34,0,0,0,1.53,8.25,11.1,11.1,0,0,1,.47,2.85,3.07,3.07,0,0,1-2.39,3.25,21.53,21.53,0,0,1-3.5.61c-1.6.18-3.22.27-4.83.42-2.47.22-3.73,1.42-3.93,3.87a8.42,8.42,0,0,0,1.25,5.43,54.49,54.49,0,0,0,4.31,5.42,8.28,8.28,0,0,0,4.3,2.43c3.81,1,7.65,1.88,11.43,2.94,2.17.61,4.28,1.46,6.39,2.26a5.51,5.51,0,0,1,1.65,1,2.54,2.54,0,0,1-.5,4.4,5,5,0,0,1-1.66.6c-4.32.6-8.64,1.22-13,1.7a20.41,20.41,0,0,1-8.31-1c-2.31-.73-4.6-1.53-6.9-2.3-.51-.17-1-.4-1.53-.53-1.73-.43-2.65-.06-3.44,1.55a3.84,3.84,0,0,1-3.5,2.2,23.28,23.28,0,0,1-7.4-.42,3.69,3.69,0,0,0-4.4,1.48,59.52,59.52,0,0,0-3.51,5.6,43.41,43.41,0,0,0-3.88,12.13,7.07,7.07,0,0,1-5,5.79c-2,.7-4,1.58-6,2.33a16.16,16.16,0,0,1-5.86,1,23.59,23.59,0,0,0-4.67.42,11,11,0,0,0-5.94,3.09,11,11,0,0,1-7.84,3.28,70.24,70.24,0,0,1-11.14-.15c-3.1-.36-6.24-.39-9.37-.49a8.49,8.49,0,0,1-4.87-1.47c-2.19-1.57-2.43-3.68-.57-5.63a21.61,21.61,0,0,1,6.7-4.74c6.23-2.87,12.75-5,19.22-7.22,2.69-.93,5.44-1.71,8.16-2.59,2.45-.8,4.55-2.11,5.42-4.68a8.72,8.72,0,0,0,.48-3.78,11.22,11.22,0,0,1,.69-5.85,23,23,0,0,0,1-3.58c.49-2.21,1-4.43,1.39-6.65a19.13,19.13,0,0,0,.48-3.67c0-7.5.45-15,1-22.45.26-3.65.93-7.27,1.42-10.9.3-2.19.62-4.38.94-6.57a6.06,6.06,0,0,1,2.76-4.37q3-2,6-3.88a23.57,23.57,0,0,1,2.23-1.3c2.62-1.31,4.18-3.23,4.25-6.32a9.13,9.13,0,0,1,1.48-4.4c1-1.72,2-3.47,2.88-5.24.74-1.48.58-2.57-.82-3.35-2.74-1.53-4.76-3.78-6.93-6s-4.91-4.2-7.39-6.28A23.53,23.53,0,0,1,130,336.2a47.61,47.61,0,0,0-6.68-5.61c-1.16-.88-2.29-1.8-3.45-2.69a9.18,9.18,0,0,0-1.32-.92,1.84,1.84,0,0,0-2.86.79,6.6,6.6,0,0,0-.88,3.21c.24,3.12-.6,6-1.51,8.86a37.94,37.94,0,0,0-.91,4.1c-.37,1.9-.57,3.84-1.08,5.71-.71,2.65-.47,5.36-.72,8-.06.65-.09,1.29-.1,1.94a8.78,8.78,0,0,1-2.8,6.33c-2.89,2.82-5.7,5.74-8.58,8.57a10.5,10.5,0,0,0-3.42,6.07c-.32,2.24-1.62,4.1-2.8,6a64.71,64.71,0,0,0-4.72,9.37c-1,2.33-2.26,4.53-3.33,6.82s-2,4.43-2.88,6.67c-1.59,3.89-3.06,7.83-4.71,11.7-1.25,2.92-2.8,5.71-4.07,8.62C72,432.45,71,435.24,69.94,438a22.68,22.68,0,0,1-1,2.39,2.68,2.68,0,0,1-3.53,1.41,6.72,6.72,0,0,1-1.61-.74,14,14,0,0,0-5-1.81c-3.6-.68-7.22-1.29-10.8-2.07a3.36,3.36,0,0,0-3.79,1.39,16.15,16.15,0,0,0-1.4,2.18c-1.45,2.88-2.87,5.79-4.27,8.7a7.3,7.3,0,0,0,.22,7,57.88,57.88,0,0,0,4.71,6.93c2.66,3.41,6.46,5.32,10.2,7.25,2.05,1.05,4.24,1.83,6.37,2.75a38.07,38.07,0,0,1,4.12,1.85,6.48,6.48,0,0,1,2.19,2.07c1.16,1.86.44,3.81-1.68,4.29a59.86,59.86,0,0,1-6.71,1c-4.28.49-8.38-.47-12.39-1.77-3.33-1.08-6.61-2.34-9.92-3.49a7.43,7.43,0,0,1-3.89-2.74,17.45,17.45,0,0,0-1.71-1.94,2.77,2.77,0,0,0-2.94-.84,11.26,11.26,0,0,1-6.7,0,45.4,45.4,0,0,1-7.36-3.23c-1.67-.89-2.17-2.75-2.55-4.52a16.68,16.68,0,0,1,0-6.75,7.35,7.35,0,0,1,2.83-4.58,33.34,33.34,0,0,0,5-5.48A50.85,50.85,0,0,0,25.07,436a9.11,9.11,0,0,0,.95-4.05,12.17,12.17,0,0,1,1.3-5.62,36.56,36.56,0,0,0,1.79-4.67,28.21,28.21,0,0,1,4.72-8.6,82.08,82.08,0,0,0,6.37-9.72,167.91,167.91,0,0,1,10.19-15.16c1-1.4,2-2.78,3-4.18a26.55,26.55,0,0,1,5.82-5.53,67.79,67.79,0,0,0,11-10.69,8.51,8.51,0,0,0,2.11-4.65A3,3,0,0,1,74.37,360.26ZM182.68,277a33.65,33.65,0,0,0-3.79,0c-1.86.21-2.61.74-2.34,2.83a3.69,3.69,0,0,1-2.09,3.87c-.42.24-.86.46-1.29.68-2.1,1.09-4.21,2.15-6.29,3.28a7.18,7.18,0,0,1-6.38.43,37.13,37.13,0,0,1-7.08-3.53,17.45,17.45,0,0,0-6.7-3.08,3.21,3.21,0,0,0-3.21,1,5.94,5.94,0,0,1-4.66,1.84c-.6,0-1.19-.07-1.78,0-1.06.07-1.52.53-1.31,1.58a6.75,6.75,0,0,0,1,2.52A58.08,58.08,0,0,0,146,299c3.65,3.19,7.5,6.19,10.42,10.11,2,2.73,3.92,5.54,5.82,8.35,1,1.46,1.79,3.07,2.84,4.49a17.93,17.93,0,0,0,5.41,4.81,2.47,2.47,0,0,0,3.47-.52c.25-.27.45-.6.69-.89,2-2.58,4-5.21,6.11-7.72,1.5-1.77,3.21-3.35,4.78-5.06a19.75,19.75,0,0,1,4.89-3.93c1.46-.81,2.93-1.61,4.37-2.45a10.51,10.51,0,0,0,5.64-7.46c.46-2.48,1.29-4.89,1.94-7.34.8-3,1.67-6,2.35-9.07.53-2.33-.11-3.43-2.35-4.27a57.56,57.56,0,0,0-12.15-3.26,2.31,2.31,0,0,0-2.12.5A5.8,5.8,0,0,1,182.68,277Zm70.23-166.24v-.06a10.4,10.4,0,0,0-1.12.15q-5.1,1.23-10.2,2.48-5.33,1.31-10.65,2.65-4.53,1.15-9.06,2.35a6.33,6.33,0,0,0-3.67,2.74c-.4.58-.79,1.16-1.15,1.75a6.67,6.67,0,0,1-4.91,3.34,3.28,3.28,0,0,0-1.08.31,1.41,1.41,0,0,0-.83,1.7,18.77,18.77,0,0,1,1.22,7.29c.13,4.29,2.16,7.26,5.84,9.37a33,33,0,0,1,9.4,7.3c2.11,2.57,3.21,2.84,6.32,1.61l.3-.12a12.28,12.28,0,0,1,6.16-1c.81.08,1.61.19,2.42.25a1.76,1.76,0,0,0,1.8-1.11c.39-.79,0-1.34-.63-1.8a11.28,11.28,0,0,0-1-.78l-5.93-3.62a33,33,0,0,1-3.53-2.25,2.33,2.33,0,0,1,.26-4,6.49,6.49,0,0,1,2.09-.81c1.31-.29,2.65-.47,4-.68,2.24-.35,4.48-.65,6.7-1.06a3.93,3.93,0,0,0,3.5-3.49c.27-1.64.8-3.24,1.19-4.86.72-3,1.55-5.94,1.09-9.08a6,6,0,0,1,1.31-4.55c.6-.77,1.18-1.54,1.74-2.33s.38-1.51-.71-1.69A4.37,4.37,0,0,0,252.91,110.79Zm34.63,53.62a15.68,15.68,0,0,0,0,1.94,2.35,2.35,0,0,0,.49,1.31,8.17,8.17,0,0,0,4.22,1.86,3.34,3.34,0,0,0,2.68-.86c.64-.41,1.23-.87,1.85-1.3,3-2.1,6-4.14,9-6.31a18.41,18.41,0,0,0,3.28-3.08c1.92-2.32,2.62-5.28,3.78-8a2.57,2.57,0,0,0-.54-2.72,7.41,7.41,0,0,1-1.5-3.36,14.68,14.68,0,0,0-1.95-4.76c-.46-.79-.94-1.57-1.34-2.39a42.67,42.67,0,0,0-10.68-13.27,9.13,9.13,0,0,0-1.84-1.3c-1.12-.57-1.82-.27-2.23.94-.51,1.47-.89,3-1.44,4.45a7.2,7.2,0,0,0-.34,3.81c.39,2.28.81,4.55,1.25,6.83.16.84.37,1.68.58,2.51a3.35,3.35,0,0,0,2.57,2.41c1.28.39,2.51,1,3.79,1.36,1.84.59,3.7,1.14,5.56,1.64,1,.29,2.11.42,3.16.68a1.57,1.57,0,0,1,.54,2.93,8.4,8.4,0,0,1-1.26.73,18.75,18.75,0,0,1-6.86,1.72c-2.15.11-4.3.35-6.45.47a5,5,0,0,0-4.73,3.7A25.89,25.89,0,0,0,287.54,164.41Zm-138,103.85a6.55,6.55,0,0,0,3.23-1.22c1.75-1.06,3.55-2,5.31-3.08,3.27-2,6.77-3.69,8.34-7.54a1.78,1.78,0,0,1,.38-.53,1.16,1.16,0,0,0-.13-1.82c-.95-.95-1.81-2-2.75-2.94a1.73,1.73,0,0,0-1.07-.59c-2,.05-4,.13-6,.36a2.13,2.13,0,0,0-1.87,1.93,10.7,10.7,0,0,1-1.28,3.09,14.07,14.07,0,0,1-1.93,2.38c-2.57,2.74-5.57,4.29-9.41,3.13a42,42,0,0,1-5-1.9,6.46,6.46,0,0,0-4.54-.58,1.46,1.46,0,0,0-.92,2.46,3.77,3.77,0,0,0,1.36,1.08,10.32,10.32,0,0,0,2.3.75,41.22,41.22,0,0,1,10.25,3.87A22.26,22.26,0,0,0,149.54,268.26Zm32.93,3.64a4,4,0,0,0,1.3-.66c.51-.57,0-1.13-.34-1.58-.62-.81-1.32-1.56-2-2.36a22.23,22.23,0,0,1-2.47-3.37A13.32,13.32,0,0,0,173.5,258c-1-.57-2.05-1.19-3.1-1.72s-1.6-.32-1.71,1a32.61,32.61,0,0,1-1.94,8c-.66,2-.31,2.81,1.61,3.47a52.22,52.22,0,0,0,5.73,1.69C176.81,271,179.58,271.38,182.47,271.9Z"/><path class="cls-1" d="M223.5,532.55c-1,0-1.95,0-2.91-.15-1.77-.22-2.58-1.35-1.87-2.95,2-4.55,1.49-9.31,1.49-14A3.79,3.79,0,0,0,219,513a6.57,6.57,0,0,1-1.74-5.07,49.38,49.38,0,0,0-.28-10.31c-.22-2.08,0-4.2-.07-6.3a22.29,22.29,0,0,0-.31-4c-.27-1.3-.91-1.61-2.15-1.1-1.43.58-2.82.94-4.16,0a6.83,6.83,0,0,1-3-4.6,10.08,10.08,0,0,1-.1-2.26c.14-2.26.44-4.51.49-6.77.12-5.07,1.56-9.88,2.64-14.77.79-3.58,1.43-7.19,2.31-10.75,1.39-5.59,2.91-11.15,4.41-16.71a4.2,4.2,0,0,0-1.59-4.83,24.94,24.94,0,0,1-7.23-10,60.91,60.91,0,0,1-2.65-7.44,7.17,7.17,0,0,1,.48-5.77,19.4,19.4,0,0,0,1.22-2.81c1.19-3.24,2.31-6.5,3.54-9.72a21.36,21.36,0,0,1,1.63-3.15c1.06-1.81,2.18-3.59,3.27-5.39a10.34,10.34,0,0,0,1.29-3.79,22.76,22.76,0,0,1,1.17-4.52,5.68,5.68,0,0,1,4.26-3.61c1.32-.3,2.66-.44,4-.71a15.71,15.71,0,0,0,2.79-.74c1.84-.75,3.64-1.6,5.45-2.41a11.51,11.51,0,0,0,1.46-.69,2.24,2.24,0,0,0,1-2.64,33.19,33.19,0,0,0-1-3.4,4.5,4.5,0,0,0-1.09-1.55c-.81-.78-1.75-1.44-2.58-2.2a3.46,3.46,0,0,1,.42-5.75,10,10,0,0,1,2-1,4.52,4.52,0,0,0,2.86-3.62c.93-5,3-7,8-7.72,4.8-.74,8.39,1.38,10,6a22.93,22.93,0,0,1,1,4.08,3,3,0,0,0,2,2.65,10.69,10.69,0,0,1,1.89.93c2.11,1.28,2.64,3.37,1.21,5.37a10.13,10.13,0,0,1-2.55,2.42,6.81,6.81,0,0,0-3,3.87c-.24.83-.66,1.6-.87,2.43a3.28,3.28,0,0,0-.1,1.85,15.33,15.33,0,0,0,5.71,7.65,3.48,3.48,0,0,0,.55.33,1.75,1.75,0,0,0,2.52-1,25,25,0,0,1,1.41-2.9,11.88,11.88,0,0,1,7.57-5.13,6.6,6.6,0,0,1,5.73,1.57,15,15,0,0,1,3.94,4.67,7.07,7.07,0,0,0,4.47,3.66c2.31.67,3.11,2.18,2.47,4.49a41.29,41.29,0,0,1-1.74,4.52c-.43,1.05-.95,2.06-1.35,3.11s-.16,1.88,1.07,2.2,2.65.47,4,.73c1,.19,2,.42,3,.66a11.52,11.52,0,0,1,6.43,4.33,48.4,48.4,0,0,0,8.35,8.08c1.15.89,2.27,1.82,3.43,2.7a18.09,18.09,0,0,1,4.74,5.87,6.27,6.27,0,0,1,.48,5.46,21.32,21.32,0,0,1-2,3.86,11.14,11.14,0,0,0-1.95,4,4.88,4.88,0,0,1-1.22,2.22,2.25,2.25,0,0,1-3.74-.2,19.39,19.39,0,0,1-1.47-2.87,9.29,9.29,0,0,0-.78-1.58,16.2,16.2,0,0,1-2.47-5.41,16.74,16.74,0,0,0-1-2.88,6.72,6.72,0,0,0-5.35-3.46A2,2,0,0,0,296,413a9.25,9.25,0,0,0,0,2.52c.23,1.65.59,3.28.86,4.93a3.68,3.68,0,0,0,1.37,2.31c.53.45,1.07.89,1.63,1.31a39.68,39.68,0,0,1,11.74,14.42,26.06,26.06,0,0,1,1.75,5.36c1.89,7.61.89,15.07-1.2,22.49a56,56,0,0,0-1.25,6.16c-.41,2.56-.57,5.16-1.09,7.69a24.56,24.56,0,0,0,.32,10.89c.53,2.19.95,4.43,1.26,6.67a17.51,17.51,0,0,1,0,4,76.4,76.4,0,0,0,.77,22.69,8.28,8.28,0,0,1,.24,2.09,3.82,3.82,0,0,1-.51,2.15c-1.66,1.85-3.14,4-5.93,4.39a21.08,21.08,0,0,1-2.74.22c-1.72,0-3.45-.12-5.16-.25-2.54-.19-3.72-1.48-3.6-4a21.68,21.68,0,0,1,.56-4.16A70.32,70.32,0,0,0,296.64,513a51.26,51.26,0,0,1,1.3-10.24c.71-2.56.37-5.14.18-7.71a24.65,24.65,0,0,0-2-8.12,13.43,13.43,0,0,1-.66-7.33c.26-1.81.59-3.62.68-5.44.14-2.68.2-5.38.09-8.07a16.15,16.15,0,0,0-.95-3.72,2.31,2.31,0,0,0-.62-.93c-.87-.86-1.59-.76-2.22.29a9,9,0,0,0-.91,5.8c.38,3.36.91,6.71,1.22,10.08a10.2,10.2,0,0,1-.38,3.81c-.9,3-2,6-3,9.05a38.53,38.53,0,0,0-1.3,19.29,10.51,10.51,0,0,1-1.24,7.31,5,5,0,0,1-5.14,2.66,4.31,4.31,0,0,1-4.14-4.36,6.44,6.44,0,0,1,.34-2.22,3.53,3.53,0,0,0-1.26-4.31c-.81-.63-1.65-1.22-2.49-1.81-2.63-1.86-3.53-4.21-2.55-7.33s2-6.26,3.26-9.3a114.68,114.68,0,0,0,3.93-12,12,12,0,0,0,.39-5.27c-.39-2.56-.54-5.15-1-7.71a19.26,19.26,0,0,0-1.23-4.16c-1.22-3-2.66-5.89-3.82-8.91a24.91,24.91,0,0,1-1.36-9.55c0-2.32.16-4.63.18-6.95,0-3.11-1.51-5.57-3.46-7.8a2.66,2.66,0,0,0-3-.95,3.33,3.33,0,0,0-2.54,2.64,18.72,18.72,0,0,0-.35,2.88,71.52,71.52,0,0,1-2.85,16.85c-1.33,4.78-2.9,9.47-4.63,14.12a13.6,13.6,0,0,0-.71,6c.34,3.75.63,7.51.95,11.27a34.37,34.37,0,0,0,2,8c1.08,3.22,2.08,6.46,3.12,9.69a5,5,0,0,1-1,5.13,41.22,41.22,0,0,0-2.35,3.46,1.65,1.65,0,0,0,.2,2.33c.11.11.18.27.28.39,2.6,2.85,2.49,6.07,1.12,9.36a60,60,0,0,1-2.75,5.5,5.25,5.25,0,0,1-5.62,2.93,3.6,3.6,0,0,1-3-2.38,16,16,0,0,1-1.09-6.81c.12-1.61.16-3.23.16-4.85a4.21,4.21,0,0,0-1.29-3.38c-2.67-2.2-3-5.21-3.19-8.33-.07-1.55.07-3.12,0-4.69-.07-1.87-.21-3.76-.41-5.63-.15-1.31-.74-1.63-2-1.23a2.53,2.53,0,0,0-.45.19,4.67,4.67,0,0,1-5.24-.92c-2.12-1.84-2.54-1.72-3.46,1a24.47,24.47,0,0,0-.93,9.4c.15,2.74.34,5.48.5,8.22a8.23,8.23,0,0,1-1.06,4.51,6.72,6.72,0,0,0-.91,4c.18,1.82.41,3.64.76,5.43.44,2.28,1,4.53.52,6.88s-1.32,3.2-3.81,3.32c-.64,0-1.29,0-1.94,0Zm-.92-128.67a1.78,1.78,0,0,0,0-.65,13.25,13.25,0,0,0-.47-1.88.72.72,0,0,0-1.17-.38c-1.32.86-1.69,3.9-.63,5.12.62.73,1.35.68,1.74-.23A10.47,10.47,0,0,0,222.58,403.88Z"/><path class="cls-1" d="M564.62,414.14c.18,5.49.38,10.49.49,15.5a25.92,25.92,0,0,1-2.25,11.64,5,5,0,0,0-.43,3.15c.45,2.22.87,4.44,1.42,6.63.86,3.45,1.78,6.89,2.78,10.29a37.13,37.13,0,0,0,1.61,3.67c.9,2.12,1.88,4.23,2.6,6.42a4.67,4.67,0,0,1-.24,2.82,5.64,5.64,0,0,0,.11,4.38,9.66,9.66,0,0,0,5.11,5.55,7.9,7.9,0,0,0,2,.52c2.79.3,5.58.54,8.37.82a9.25,9.25,0,0,1,1.59.26c2,.53,2.54,1.88,1.43,3.65a11.9,11.9,0,0,1-7.53,5.44c-1.36.32-2.77.42-4.15.65a16.77,16.77,0,0,0-3.94.76c-4,1.78-8.68-.57-9.82-5.57-.48-2.08-.49-4.27-.76-6.4a27.11,27.11,0,0,0-.67-3.81,3.73,3.73,0,0,0-3-2.79c-.9-.19-1.78-.43-2.69-.58a5.88,5.88,0,0,1-4.06-2.67c-.87-1.3-1.47-1.25-2.33.13q-1,1.57-1.92,3.18a7.78,7.78,0,0,1-3.44,3.08c-2.22,1.09-2.66,3.07-1.19,5a16.16,16.16,0,0,0,4.16,3.3,39.65,39.65,0,0,0,6.43,3.35,14.65,14.65,0,0,1,3.3,2.26A2.06,2.06,0,0,1,556,498.5c-2.45-.32-4.9-.71-7.33-1.18-1.43-.27-2.81-.74-4.21-1.14a5.38,5.38,0,0,0-4.23.36,11,11,0,0,1-7.87.77,4.12,4.12,0,0,1-3.37-3.49,10,10,0,0,1,.74-6.15c.73-1.67,1.36-3.39,2-5.11a4,4,0,0,0-.43-3.57c-.27-.46-.51-.95-.78-1.41a5.19,5.19,0,0,1-.62-4.07c.91-3.43,1.76-6.9,2.95-10.25a71.58,71.58,0,0,1,3.23-6.51c.79-1.64,1.52-3.33,2.16-5,.53-1.42.19-2.07-1.19-2.67a13.36,13.36,0,0,0-1.67-.6,8,8,0,0,1-4.65-3.78,51.93,51.93,0,0,1-6.43-17.17c-.93-4.47-2.23-8.87-3.38-13.3a7.24,7.24,0,0,0-.41-1.06c-.4-.94-.72-1.15-1.72-1.05-.27,0-.53.12-.79.15-2.23.24-2.67,1.5-1.82,3.07a13.64,13.64,0,0,1,.88,2.25c.21.63.33,1.41-.36,1.73a1.86,1.86,0,0,1-1.63-.07c-3.17-2.37-6.15-5-7.45-8.89-.44-1.31-.46-2.76-.81-4.12a18.59,18.59,0,0,0-1.1-2.81c-.48-1.07-1-2.12-1.54-3.18-.76-1.6-1.43-3.25-2.29-4.79a18.65,18.65,0,0,1-2.59-7.76c-.22-3.4-.9-6.72-1.35-10.08-.71-5.39-1.72-10.76-1.77-16.21,0-2.74.22-5.49.36-8.23a38,38,0,0,0-.61-9.81,15,15,0,0,1-.2-3.85,14.88,14.88,0,0,0-.45-4.8,4.69,4.69,0,0,1,1-4.37,15.5,15.5,0,0,1,8.7-5.53c1.82-.5,3.64-1,5.46-1.45,3.83-1,4.73-3.88,2.73-7.57a3.7,3.7,0,0,0-.61-.76c-1.83-1.89-3.64-3.82-5.54-5.64a17.44,17.44,0,0,0-2.3-1.49,28.73,28.73,0,0,1-3.53-2.54c-1.83-1.72-1.55-3.6.57-4.92.55-.34,1.12-.65,1.7-.94a3.71,3.71,0,0,0,2.19-3.65c0-1,0-2.05.06-3.07a8.73,8.73,0,0,1,4-7.07,13.64,13.64,0,0,1,9.95-2.5,7.31,7.31,0,0,1,6,4.19c.62,1.31,1.18,2.65,1.76,4,.25.59.47,1.2.74,1.78a4.17,4.17,0,0,0,4.2,2.69,6.23,6.23,0,0,1,2.65.54,2.18,2.18,0,0,1,.83,3.61,15.82,15.82,0,0,1-1.5,1.45c-1.29,1.26-2.45,2.55-2.45,4.54a8.51,8.51,0,0,1-.5,2.36,12.36,12.36,0,0,0,.47,8.23,6.4,6.4,0,0,0,5,4.18c1.59.27,3.19.57,4.8.68a7.74,7.74,0,0,1,7.15,5.17,16.5,16.5,0,0,1,1.52,6.4,12.14,12.14,0,0,0,1.38,5.1c1.23,2.68,2.28,5.45,3.4,8.19l1.7,4.2c1.61,3.93,3.18,7.89,4.86,11.8a61.47,61.47,0,0,0,3.49,7.27c2.85,4.79,4.34,10.07,5.81,15.37a6.51,6.51,0,0,1,.11,2.71,8.49,8.49,0,0,0,1.19,5.89,4,4,0,0,1,.41,4,5.74,5.74,0,0,0-.2,2.68c.11,1.12.49,2.22.62,3.34.2,1.74-1,2.61-2.49,1.79a2,2,0,0,0-2.38.13c-.44.31-.88.63-1.34.9a4.16,4.16,0,0,0-2.11,3.92C564.63,411.71,564.62,413.16,564.62,414.14ZM516,383h.12a11.32,11.32,0,0,0-.15-2.41q-1.53-5.5-3.23-11c-.17-.57-.48-1.41-1.26-1.2-.44.13-.74.82-1.05,1.29a2.37,2.37,0,0,0-.21.77,8.58,8.58,0,0,0,.17,4.44c.72,2.59,1.43,5.19,2.27,7.74a17,17,0,0,0,1.69,3.28,1.28,1.28,0,0,0,1,.47c.23,0,.55-.53.58-.84C516.08,384.76,516,383.9,516,383Zm1.3,20.85c.73-1,.94-2.8-.81-3.3C515.86,401.78,515.94,403.34,517.33,403.89Z"/></svg>