<svg id="Lag_1" data-name="Lag 1" xmlns="http://www.w3.org/2000/svg" viewBox="0 0 444 140.79"><defs><style>.cls-1{fill:#1a1918;fill-rule:evenodd;}.cls-2{fill:#8c2122;}.cls-3{font-size:33.44px;font-family:MyriadPro-Regular, Myriad Pro;}</style></defs><title>logo</title><path class="cls-1" d="M24.76,86.25c0-.34.08-.62.1-.91a6.15,6.15,0,0,0,0-1c0-.38-.24-.45-.55-.22a3,3,0,0,0-.39.4,12.25,12.25,0,0,0-1.51,2.31,11.87,11.87,0,0,1-.84,1.47,2,2,0,0,1-.63.62.71.71,0,0,1-1.09-.42,2.71,2.71,0,0,1-.19-1.26c.1-.83.21-1.66.31-2.49a20.83,20.83,0,0,1,1.16-4.6,5.75,5.75,0,0,0,.22-1.17c.07-.5.11-1,.18-1.52a66.45,66.45,0,0,1,1.33-6.54c.28-1.16.64-2.29,1-3.42a11.81,11.81,0,0,0,.27-1.24,7.19,7.19,0,0,1,.92-2.28,14.81,14.81,0,0,0,1.59-3.65,4.84,4.84,0,0,0,0-3,9.35,9.35,0,0,1-.36-2.22,11.33,11.33,0,0,1,.15-1.52,9,9,0,0,0,.05-1.27,5.5,5.5,0,0,1,.2-2A3.56,3.56,0,0,0,26.84,49a20.89,20.89,0,0,1-.09-2.5,4.18,4.18,0,0,1,1-2.53l2-2.32a7.87,7.87,0,0,0,1-1.59c.21-.4.44-.8.67-1.19A2,2,0,0,1,32.45,38a1.5,1.5,0,0,0,.71-2,1.06,1.06,0,0,0-.39-.37,1.94,1.94,0,0,1-1-1.49,1,1,0,0,0-.38-.68c-.24-.2-.49-.38-.73-.59a5.13,5.13,0,0,1-.6-.54,1.54,1.54,0,0,1,.27-2.43,4.35,4.35,0,0,1,1-.44c.3-.1.63-.16.95-.24a.83.83,0,0,0,.6-.59,11.91,11.91,0,0,1,.77-1.84,5.07,5.07,0,0,1,2.55-2.41,3.29,3.29,0,0,1,2.45,0,2.65,2.65,0,0,1,.88.58,16.15,16.15,0,0,1,1.17,1.3,4.62,4.62,0,0,1,1,2.32c.07.49.14,1,.18,1.48a1.51,1.51,0,0,0,.66,1.18,4.48,4.48,0,0,0,.47.28,2.33,2.33,0,0,1,1,1.15A1.44,1.44,0,0,1,44,34.08a2.66,2.66,0,0,1-1,1c-.22.12-.46.22-.69.32a1.4,1.4,0,0,0-.71.53,2.92,2.92,0,0,1-.94.91,1.07,1.07,0,0,0-.55,1c0,.91,0,1.81,0,2.72a.42.42,0,0,0,.24.41A1.67,1.67,0,0,1,41,43.15a2.07,2.07,0,0,1-.19.32c-.08.12-.15.25-.24.36a1.8,1.8,0,0,0-.16,1.88,3.72,3.72,0,0,1,.24.85.72.72,0,0,0,.44.62c.27.13.55.23.82.37a.66.66,0,0,1,.4.93,6.91,6.91,0,0,1-.62,1.21,3.31,3.31,0,0,0-.56,1.45c-.07.8-.19,1.6-.29,2.41,0,.14,0,.27-.07.41s.09.41.37.35a.67.67,0,0,0,.33-.18,8.69,8.69,0,0,0,.61-.75c.13-.17.21-.38.34-.54a.42.42,0,0,1,.75.12,1.43,1.43,0,0,1,.08.58c0,.25-.07.51-.1.76a.84.84,0,0,0,.52,1,7.85,7.85,0,0,0,2.71.84,6.53,6.53,0,0,1,2.21.59.51.51,0,0,0,.59,0,2.88,2.88,0,0,0,.27-.22,1.92,1.92,0,0,1,1.27-.61.7.7,0,0,0,.54-.3c.17-.24.36-.48.51-.73a20.55,20.55,0,0,1,2.94-3.69,13.79,13.79,0,0,0,1.55-2,12,12,0,0,0,1.32-2.6,6.92,6.92,0,0,1,1.38-2c.19-.23.41-.43.6-.67a1.87,1.87,0,0,0,.35-.57,1,1,0,0,0-.07-1,3.83,3.83,0,0,0-2.15-1.77,1.39,1.39,0,0,1-.82-.87,20.8,20.8,0,0,1-1.29-4.58,5.14,5.14,0,0,0-1.74-3.36c-.34-.3-.66-.63-1-.94a2.36,2.36,0,0,1-.67-1.11c-.41-1.51-.83-3-1.23-4.52-.16-.59-.29-1.18-.43-1.78a1.76,1.76,0,0,1,.77-1.93c.74-.54,1.5-1.06,2.25-1.6a2.34,2.34,0,0,0,.4-.37,14,14,0,0,1,2.57-2.41l0,0a10.17,10.17,0,0,1,3.66-1.31,6.08,6.08,0,0,0,1.92-.52,11.88,11.88,0,0,1,2.34-.77c.53-.12,1.05-.34,1.58-.49,1.31-.38,2.62-.75,3.93-1.1a4.85,4.85,0,0,1,.93-.13.9.9,0,0,1,1,.63c.15.38.28.77.42,1.16.29.85.52,1.14,1.57,1.18h.77a3,3,0,0,1,1.32.26A1,1,0,0,0,77,16a1.85,1.85,0,0,1,2.16.09,1.09,1.09,0,0,0,1.26.11,1.51,1.51,0,0,1,1.71.19A2.49,2.49,0,0,1,83,17.46a2.42,2.42,0,0,0,.45.66,1,1,0,0,0,1.16.27,12.54,12.54,0,0,0,1.53-.72,1.08,1.08,0,0,1,1.48.06A12.72,12.72,0,0,1,89,19.27a10.15,10.15,0,0,1,.89,1.35,12.81,12.81,0,0,1,.57,1.18,4,4,0,0,0,.9,1.23c.47.47.9,1,1.34,1.48a2,2,0,0,1,.47,1.17,1.71,1.71,0,0,0,.52,1.13c.3.29.58.59.88.87a3,3,0,0,1,.91,1.51c.08.36.17.72.27,1.07a1.35,1.35,0,0,1-.27,1.28L95.1,32a4,4,0,0,0-.81,1.67,3.51,3.51,0,0,1-1.38,2.13,4.13,4.13,0,0,0-.65.67,1.27,1.27,0,0,0-.27.78,5.42,5.42,0,0,1-.07.81,2.4,2.4,0,0,1-.21.69,6.51,6.51,0,0,1-1.24,1.71,7.58,7.58,0,0,0-1.56,2,3.91,3.91,0,0,0-.3.83.87.87,0,0,0,.07.44,4.24,4.24,0,0,0,.89,1.39,14,14,0,0,1,1.06,1.38,5.87,5.87,0,0,1,.77,2.59,6,6,0,0,1-.17,2.15c0,.16-.08.33-.11.49a11.44,11.44,0,0,1-.85,2.49c-.37.86-.7,1.74-1,2.61a2,2,0,0,0,.07,1.49,8.09,8.09,0,0,0,.4.84,12.67,12.67,0,0,1,1.41,3.9A8.89,8.89,0,0,0,92,65.54a12.89,12.89,0,0,1,.64,1.7,17.59,17.59,0,0,0,1,2.18,3,3,0,0,0,.67.76A19.11,19.11,0,0,1,96,72a11.93,11.93,0,0,0,1.66,1.52,19.45,19.45,0,0,1,2.4,2.23c.59.63,1.26,1.18,1.9,1.77l0,0c.52.39.78.34,1-.27s.44-1.08.63-1.63c.46-1.34.94-2.67,1.34-4a19.93,19.93,0,0,0,.35-2c.19-1,.41-2.09.59-3.14.12-.71.18-1.43.31-2.14.21-1.16.45-2.31.68-3.47.15-.75.29-1.5.46-2.25a5.34,5.34,0,0,1,.33-1,19.36,19.36,0,0,0,1-3.26c.12-.48.24-1,.39-1.44a14.77,14.77,0,0,0,.64-3.16,10.34,10.34,0,0,1,.24-1.46,19,19,0,0,0,.68-4,6.46,6.46,0,0,1,.19-1.14,3.44,3.44,0,0,1,.59-1.31,5.58,5.58,0,0,0,.35-.58A1.51,1.51,0,0,0,112,40a5.11,5.11,0,0,1,.07-1.91,4.92,4.92,0,0,0,.1-.67.82.82,0,0,0-.28-.76,2,2,0,0,1-.63-1.09c-.07-.27-.15-.55-.23-.82a.56.56,0,0,0-.8-.44l-.64.22a8.93,8.93,0,0,1-2.28.49,2.57,2.57,0,0,1-1.13-.13,6.44,6.44,0,0,0-.88-.13,4.28,4.28,0,0,1-.72-.06,3.13,3.13,0,0,0-1.55.06,16.24,16.24,0,0,1-3.25.41,2.44,2.44,0,0,1-.71-.06.44.44,0,0,1-.23-.76,4.09,4.09,0,0,1,.73-.65,1.33,1.33,0,0,1,.59-.19c.34,0,.57-.13.63-.5a.56.56,0,0,1,.59-.46c.45,0,.9,0,1.36,0a1.29,1.29,0,0,0,.34,0c.18,0,.43-.09.52-.23a8,8,0,0,1,1.84-1.69,3.12,3.12,0,0,0,1.18-1.77,6.13,6.13,0,0,0,.14-1.13c0-1,0-2.07.08-3.1a1.39,1.39,0,0,0-.45-1.22,9.42,9.42,0,0,1-1.78-2.33,1.47,1.47,0,0,1-.2-.85c0-.64.18-1.29.28-1.93.08-.49.19-1,.25-1.46a1,1,0,0,0-.25-.83,1.08,1.08,0,0,0-1.15-.17l-.78.36a1.32,1.32,0,0,1-1.57-.25,2.79,2.79,0,0,0-.43-.34,2.64,2.64,0,0,1-1.07-1.29A3.06,3.06,0,0,0,98.6,13a1.3,1.3,0,0,1-.53-1.57,6.79,6.79,0,0,1,.57-1.64,2.25,2.25,0,0,1,1.06-.94,4.24,4.24,0,0,0,1-.61,5,5,0,0,1,2.61-1,4,4,0,0,1,2,.33,1.85,1.85,0,0,1,.56.36,21,21,0,0,1,1.57,1.56,3.29,3.29,0,0,1,.87,1.86.78.78,0,0,0,.68.83,1,1,0,0,1,.24.1,3.9,3.9,0,0,0,1.89.53,3.51,3.51,0,0,1,1,.3c.78.26,1.55.55,2.34.77a11.42,11.42,0,0,0,1.43.19,17.41,17.41,0,0,1,3,.7A11.46,11.46,0,0,1,121.39,16c.67.41,1.3.86,2,1.28.32.2.65.4,1,.57a4.68,4.68,0,0,0,.53.17l2.27,1a.84.84,0,0,1,.53.77,2.42,2.42,0,0,1,0,.38c0,.21-.07.42-.1.63-.13,1-.09,1,.72,1.35.44.19.54.36.49.82a.57.57,0,0,0,.2.49c.34.33.34.45.08.82a1.31,1.31,0,0,0-.19.51c-.07.39-.27.58-.67.52a3,3,0,0,1-1.59-.75c-.21-.19-.4-.4-.6-.6a.47.47,0,0,0-.71-.1c-.24.14-.45.3-.69.42a.94.94,0,0,1-1.38-.3,14.51,14.51,0,0,0-2-2.12c-.58-.55-1.22-1-1.83-1.52a1.14,1.14,0,0,0-.9-.32,1.71,1.71,0,0,0,0,.32,2.53,2.53,0,0,0,.58,1.21c.84,1.05,1.6,2.17,2.35,3.28A22.85,22.85,0,0,0,124,28a10.84,10.84,0,0,1,1.71,2.37c.21.38.43.74.66,1.1a1.22,1.22,0,0,1,0,1.47l-.2.27a1.48,1.48,0,0,0-.28.87,14.08,14.08,0,0,0,.39,2.82,6,6,0,0,1-.37,3.83,3,3,0,0,0-.18,2.11,16.45,16.45,0,0,1,.53,3.49c.06,1,.13,2,.2,3,0,0,0,.05,0,.08.12,1.68.25,3.37.37,5,.09,1.43.15,2.86.25,4.29.09,1.23.13,2.46.21,3.69.12,1.94.35,3.87.53,5.8,0,.55,0,1.11.07,1.66.08.84.22,1.68.33,2.53,0,.31.05.62.06.93,0,.71,0,1.42.1,2.12a3.48,3.48,0,0,0,.6,1.67c.21.3.45.59.67.88a3.79,3.79,0,0,1,.77,2c0,.16,0,.31.06.46a41.31,41.31,0,0,0,1.17,5.18c.32,1.12.47,2.28.7,3.42l.27,1.46c.2,1,.39,1.92.59,2.88a21.26,21.26,0,0,0,1,3.12,21.43,21.43,0,0,1,1.19,4.39,18.82,18.82,0,0,0,.61,2.65,19.19,19.19,0,0,1,.82,3.9c.07,1,.08,2,.13,3,0,.4.11.81.16,1.22a10.74,10.74,0,0,1,.12,1.26,5.15,5.15,0,0,0,.32,1.79,11,11,0,0,1,.56,3c0,.39.12.78.15,1.18.07,1,.1,2,.18,3a21.59,21.59,0,0,0,.37,2.78,19.08,19.08,0,0,0,.75,2c.24.72.46,1.46.63,2.2s-.21,1.09-.93,1.21c-1,.15-1.91.29-2.86.45-.32,0-.63.14-1,.22a10.2,10.2,0,0,1-3.1.44c-.6,0-1.19,0-1.79,0a15.27,15.27,0,0,1-3.63-.36,2.38,2.38,0,0,1-.82-.34.65.65,0,0,1,.07-1.19,5.29,5.29,0,0,1,.54-.25l.59-.24a1.14,1.14,0,0,0,.73-1.06c0-1.06.09-2.12.09-3.19,0-.53-.09-1.07-.13-1.61a13.86,13.86,0,0,1-.05-1.44,4.06,4.06,0,0,0-.35-1.86,10.49,10.49,0,0,1-.72-2.8c-.21-1.32-.41-2.63-.64-4-.13-.71-.32-1.41-.45-2.12a8.27,8.27,0,0,1-.12-1.22c0-1.38,0-2.76-.1-4.13s-.2-2.74-.33-4.11a22,22,0,0,0-.73-3.41c-.51-1.84-1-3.69-1.55-5.53a14.87,14.87,0,0,1-.58-4,5.28,5.28,0,0,0-.25-1.63c-.32-1-.61-2.07-1-3.08a15.1,15.1,0,0,0-.91-2,4.24,4.24,0,0,1-.43-2.27c0-.79,0-1.58,0-2.37,0-.53,0-1.06,0-1.58-.06-1-.16-2-.22-2.93,0-.65,0-1.3-.11-2s-.11-1.16-.2-1.73a14.44,14.44,0,0,1-.1-3.35c0-.67,0-1.33.07-2l.06-2.51c0-.27,0-.54,0-.81a19.41,19.41,0,0,0,0-3.05,24.58,24.58,0,0,1-.22-3A10.85,10.85,0,0,0,119,53a3,3,0,0,0-.16-.59c-.34,0-.4.22-.46.41-.13.46-.24.93-.34,1.4a5.3,5.3,0,0,0-.1.8,13,13,0,0,1-.55,2.53,15.19,15.19,0,0,0-.39,4.89,7.77,7.77,0,0,1-.17,1.86c-.1.73-.18,1.46-.33,2.18-.21,1-.44,2.08-.7,3.11a16.37,16.37,0,0,0-.57,3.26c0,.59-.2,1.17-.28,1.76,0,.41-.08.82-.1,1.23,0,.86-.11,1.72-.11,2.59a6.4,6.4,0,0,0,.15,1.3,7.81,7.81,0,0,1,0,2.16c-.08.67-.09,1.36-.12,2-.06,1.35-.16,2.71-.17,4.07,0,1.62.09,3.24.13,4.85,0,.78,0,1.56,0,2.34s0,1.45.09,2.17a15.86,15.86,0,0,1-.3,3.51,3.9,3.9,0,0,0,.44,2.66c.23.39.43.8.66,1.19a1.21,1.21,0,0,0,1,.7,16,16,0,0,1,3.9,1c.27.1.54.17.81.26a3.78,3.78,0,0,1,2,1.38c.14.2.35.36.52.56a4.51,4.51,0,0,1,.54.7.76.76,0,0,1-.27,1,1.76,1.76,0,0,1-.66.28,10.51,10.51,0,0,1-1.69.14,17.19,17.19,0,0,1-4.82-.75,5.12,5.12,0,0,0-.85-.24,3.87,3.87,0,0,0-2,.39.63.63,0,0,0-.36.59c0,.58-.09,1.16-.08,1.74,0,1.54-.13,3.08-.21,4.63s0,3,0,4.5c0,.71,0,1.42.06,2.13,0,1,0,2,0,2.94,0,.55.1,1.1.14,1.65,0,.8.1,1.61.13,2.42a1.46,1.46,0,0,1-.06.46.7.7,0,0,1-.59.59,3.78,3.78,0,0,0-.46.1,2.82,2.82,0,0,0-.68.32c-.35.28-.66.62-1,.9a1.7,1.7,0,0,1-.61.35,2.54,2.54,0,0,1-1.59,0,1.69,1.69,0,0,0-1.13-.05,1.45,1.45,0,0,1-1.48-.4,1.93,1.93,0,0,0-1.47-.46,4.8,4.8,0,0,0-1.51.16,2.18,2.18,0,0,1-.72.07,8.73,8.73,0,0,0-2.28.21c-.61.12-1.24.16-1.85.29a11.3,11.3,0,0,1-2.66.16,6.65,6.65,0,0,0-.77.06,4.93,4.93,0,0,1-.55,0,.81.81,0,0,1-.76-.73.76.76,0,0,1,.53-.87c.24-.08.5-.11.74-.19.39-.12.78-.24,1.17-.39a1.12,1.12,0,0,0,.65-.74,5.25,5.25,0,0,0,.17-.52c.5-1.94.85-3.91,1.27-5.86a22.19,22.19,0,0,1,.68-2.24,10.7,10.7,0,0,0,.5-2.8,50.9,50.9,0,0,1,.56-5.37c.14-1,.25-2,.38-2.95.07-.52.2-1,.26-1.56s.13-1.32.15-2a9.2,9.2,0,0,1,.29-2,14.32,14.32,0,0,0,.45-3.57c0-.78.11-1.56.17-2.34,0-.36,0-.73,0-1.1,0-.57,0-1.14,0-1.7a18,18,0,0,0-.24-1.94,2.81,2.81,0,0,0-.38-.85c-.47-.79-1-1.56-1.44-2.35a2.1,2.1,0,0,0-.6-.69,7.11,7.11,0,0,1-.91-.83,2.6,2.6,0,0,1-.72-1.33c-.2-.89-.34-1-1.25-.88a4,4,0,0,0-.9.25,1.43,1.43,0,0,1-1.64-.38c-.28-.31-.57-.63-.83-1a34.15,34.15,0,0,0-2.69-3.07,38.06,38.06,0,0,1-2.59-2.94c-.41-.52-.88-1-1.34-1.48s-.72-.73-1.1-1.06c-1-.82-1.94-1.62-2.9-2.43-.46-.38-.92-.76-1.36-1.16a6.07,6.07,0,0,0-1.28-.91c-.47-.26-.93-.55-1.4-.81a8.44,8.44,0,0,0-1-.41,1,1,0,0,0-1,.15A11.24,11.24,0,0,0,74,74.36a8.29,8.29,0,0,1-1.83,1.45,18.2,18.2,0,0,0-2.91,2.34A14.55,14.55,0,0,1,66.76,80c-.94.6-1.92,1.14-2.87,1.74-.56.36-1.09.76-1.63,1.15a10,10,0,0,0-1.35,1.17A18.62,18.62,0,0,1,58,86.28c-.66.46-1.32.93-2,1.41a6.84,6.84,0,0,0-1.67,2.07c-.24.41-.42.84-.68,1.23a2.94,2.94,0,0,0-.35,2.09c0,.29.11.58.12.88a8.84,8.84,0,0,0,.4,2.17,3.19,3.19,0,0,1,.13.75.8.8,0,0,1-.63.85,4.79,4.79,0,0,1-.92.16c-.42,0-.85.08-1.27.11a1,1,0,0,0-1,1,2.22,2.22,0,0,0,.33,1.43,15.53,15.53,0,0,0,1.14,1.43,2.14,2.14,0,0,0,1.13.64c1,.26,2,.49,3,.77.58.16,1.13.38,1.69.59a1.63,1.63,0,0,1,.43.27.67.67,0,0,1-.13,1.16,1.46,1.46,0,0,1-.44.16c-1.14.16-2.27.32-3.41.44a5.41,5.41,0,0,1-2.19-.25c-.61-.19-1.21-.4-1.82-.6a2.7,2.7,0,0,0-.4-.14.65.65,0,0,0-.9.4,1,1,0,0,1-.92.58,6.07,6.07,0,0,1-1.95-.11,1,1,0,0,0-1.16.39,14.06,14.06,0,0,0-.92,1.48,11.22,11.22,0,0,0-1,3.19,1.84,1.84,0,0,1-1.31,1.52c-.54.19-1.06.42-1.59.61a4.29,4.29,0,0,1-1.55.27,6.28,6.28,0,0,0-1.22.1,3,3,0,0,0-1.57.82,2.88,2.88,0,0,1-2.06.86,17.92,17.92,0,0,1-2.93,0c-.82-.09-1.64-.1-2.46-.13a2.27,2.27,0,0,1-1.29-.38.9.9,0,0,1-.15-1.49,5.72,5.72,0,0,1,1.77-1.24,52.84,52.84,0,0,1,5-1.9c.71-.25,1.43-.45,2.15-.68a2,2,0,0,0,1.43-1.23,2.46,2.46,0,0,0,.12-1,3,3,0,0,1,.18-1.54,5.91,5.91,0,0,0,.25-.94c.13-.58.26-1.17.37-1.75a5.26,5.26,0,0,0,.13-1c0-2,.11-3.94.26-5.9.07-1,.24-1.92.37-2.87.08-.58.16-1.15.25-1.73a1.59,1.59,0,0,1,.72-1.15l1.57-1c.19-.12.39-.24.59-.34a1.8,1.8,0,0,0,1.12-1.66,2.47,2.47,0,0,1,.39-1.16c.27-.46.52-.91.76-1.38s.15-.68-.22-.88a8.83,8.83,0,0,1-1.82-1.57c-.6-.6-1.3-1.11-2-1.65a6.91,6.91,0,0,1-.57-.51,11.89,11.89,0,0,0-1.76-1.48l-.9-.7a2.8,2.8,0,0,0-.35-.25.48.48,0,0,0-.75.21,1.65,1.65,0,0,0-.23.85,6.18,6.18,0,0,1-.4,2.33A9.73,9.73,0,0,0,34.77,82c-.1.51-.15,1-.28,1.51a12.46,12.46,0,0,0-.2,2.11c0,.17,0,.34,0,.51a2.33,2.33,0,0,1-.74,1.67c-.76.74-1.5,1.51-2.26,2.25a2.83,2.83,0,0,0-.9,1.6,4,4,0,0,1-.73,1.57,16.19,16.19,0,0,0-1.24,2.46c-.26.61-.6,1.19-.88,1.8s-.52,1.16-.76,1.75c-.42,1-.8,2.06-1.24,3.08-.33.77-.73,1.5-1.07,2.27s-.57,1.45-.85,2.17c-.09.21-.16.43-.26.63a.7.7,0,0,1-.93.37,1.66,1.66,0,0,1-.43-.19,3.63,3.63,0,0,0-1.31-.48c-1-.18-1.9-.34-2.84-.54a.88.88,0,0,0-1,.36,5.72,5.72,0,0,0-.37.58c-.38.76-.75,1.52-1.12,2.29a1.91,1.91,0,0,0,.06,1.84,15.79,15.79,0,0,0,1.24,1.82,7.61,7.61,0,0,0,2.68,1.91c.54.27,1.12.48,1.68.72a10.5,10.5,0,0,1,1.08.49,1.67,1.67,0,0,1,.58.54.7.7,0,0,1-.44,1.13,13.23,13.23,0,0,1-1.77.25,7.69,7.69,0,0,1-3.26-.46c-.88-.29-1.74-.62-2.61-.92a1.91,1.91,0,0,1-1-.72,4.43,4.43,0,0,0-.45-.51.74.74,0,0,0-.78-.22,3,3,0,0,1-1.76,0,11.53,11.53,0,0,1-1.94-.85A1.58,1.58,0,0,1,8,113.55a4.44,4.44,0,0,1,0-1.78,2,2,0,0,1,.75-1.21A9,9,0,0,0,10,109.12a13.51,13.51,0,0,0,1.75-3A2.44,2.44,0,0,0,12,105.1a3.3,3.3,0,0,1,.34-1.47,9.7,9.7,0,0,0,.47-1.23,7.49,7.49,0,0,1,1.24-2.27,21.16,21.16,0,0,0,1.68-2.55,43.41,43.41,0,0,1,2.68-4l.81-1.1A6.84,6.84,0,0,1,20.79,91a18.29,18.29,0,0,0,2.89-2.81A2.28,2.28,0,0,0,24.23,87,.78.78,0,0,1,24.76,86.25Zm28.5-21.9a8.18,8.18,0,0,0-1,0c-.49,0-.68.19-.61.74a1,1,0,0,1-.55,1l-.34.18-1.66.86a1.88,1.88,0,0,1-1.68.12,10.42,10.42,0,0,1-1.86-.93,4.56,4.56,0,0,0-1.76-.81.84.84,0,0,0-.85.26,1.52,1.52,0,0,1-1.22.48c-.16,0-.32,0-.47,0s-.4.14-.35.41a1.74,1.74,0,0,0,.27.66,14.62,14.62,0,0,0,2.42,2.79,18.14,18.14,0,0,1,2.74,2.66c.53.72,1,1.46,1.53,2.2.26.38.47.81.75,1.18A4.52,4.52,0,0,0,50,77.44a.64.64,0,0,0,.91-.13c.07-.07.12-.16.19-.24.53-.68,1-1.37,1.61-2,.39-.46.84-.88,1.25-1.33a5.14,5.14,0,0,1,1.29-1L56.44,72a2.76,2.76,0,0,0,1.48-2c.12-.65.34-1.29.51-1.93.21-.8.44-1.59.62-2.39a.82.82,0,0,0-.62-1.12,15.35,15.35,0,0,0-3.19-.86.61.61,0,0,0-.56.13A1.52,1.52,0,0,1,53.26,64.35ZM71.74,20.61h0l-.3,0-2.68.66L66,22l-2.39.62a1.69,1.69,0,0,0-1,.72c-.11.15-.21.31-.3.46a1.77,1.77,0,0,1-1.3.88,1.29,1.29,0,0,0-.28.08.38.38,0,0,0-.22.45,4.85,4.85,0,0,1,.32,1.92,2.77,2.77,0,0,0,1.54,2.46,8.74,8.74,0,0,1,2.47,1.93,1.15,1.15,0,0,0,1.66.42l.08,0a3.14,3.14,0,0,1,1.63-.25c.21,0,.42.05.63.06a.47.47,0,0,0,.48-.29c.1-.21,0-.35-.17-.47s-.18-.15-.27-.21l-1.56-.95a7.33,7.33,0,0,1-.93-.59.62.62,0,0,1,.07-1.07,1.66,1.66,0,0,1,.55-.21c.34-.07.69-.12,1-.18.59-.09,1.18-.17,1.76-.28a1,1,0,0,0,.93-.91c.07-.44.21-.86.31-1.28a6.26,6.26,0,0,0,.29-2.39,1.54,1.54,0,0,1,.34-1.2c.16-.2.31-.4.46-.61s.1-.4-.19-.45Zm9.11,14.11a4.34,4.34,0,0,0,0,.51.64.64,0,0,0,.13.34,2.08,2.08,0,0,0,1.11.49.87.87,0,0,0,.71-.22c.17-.11.32-.23.49-.35.79-.55,1.59-1.08,2.36-1.65a5.09,5.09,0,0,0,.86-.81,8.33,8.33,0,0,0,1-2.11.66.66,0,0,0-.14-.71,2,2,0,0,1-.4-.89,3.79,3.79,0,0,0-.51-1.25c-.12-.21-.25-.41-.35-.63A11.45,11.45,0,0,0,83.3,24a2.38,2.38,0,0,0-.49-.34c-.29-.15-.48-.07-.58.24s-.24.79-.38,1.18a1.8,1.8,0,0,0-.09,1c.1.6.21,1.2.33,1.79,0,.23.09.45.15.67a.88.88,0,0,0,.67.63c.34.1.67.25,1,.36.49.15,1,.3,1.46.43.28.07.56.11.84.18a.4.4,0,0,1,.34.33.43.43,0,0,1-.2.44,2.79,2.79,0,0,1-.33.19,4.92,4.92,0,0,1-1.81.45c-.56,0-1.13.1-1.69.13a1.31,1.31,0,0,0-1.25,1A6.71,6.71,0,0,0,80.85,34.72ZM44.54,62a1.66,1.66,0,0,0,.85-.32c.46-.28.94-.53,1.4-.81a4.49,4.49,0,0,0,2.19-2,.36.36,0,0,1,.1-.14.31.31,0,0,0,0-.48c-.25-.25-.48-.52-.73-.77a.43.43,0,0,0-.28-.16c-.52,0-1,0-1.57.09A.57.57,0,0,0,46,58a2.79,2.79,0,0,1-.34.82,3.67,3.67,0,0,1-.5.62,2.31,2.31,0,0,1-2.48.82,10.93,10.93,0,0,1-1.31-.49,1.7,1.7,0,0,0-1.19-.16c-.34.1-.45.37-.24.65a.9.9,0,0,0,.36.28,2.49,2.49,0,0,0,.6.2,11,11,0,0,1,2.7,1A6,6,0,0,0,44.54,62Zm8.66,1a1.14,1.14,0,0,0,.35-.17c.13-.15,0-.3-.09-.42s-.35-.41-.52-.62a6.34,6.34,0,0,1-.65-.89,3.53,3.53,0,0,0-1.45-1.56c-.27-.14-.54-.31-.81-.45s-.42-.08-.45.25a8.83,8.83,0,0,1-.51,2.1c-.18.51-.08.74.42.91A13.72,13.72,0,0,0,51,62.6C51.72,62.76,52.44,62.86,53.2,63Z"/><path class="cls-1" d="M64,131.58c-.26,0-.51,0-.76,0-.47-.06-.68-.35-.5-.78a8.55,8.55,0,0,0,.39-3.69,1,1,0,0,0-.3-.63,1.75,1.75,0,0,1-.46-1.34,12.28,12.28,0,0,0-.08-2.71c0-.55,0-1.11,0-1.66a6.11,6.11,0,0,0-.08-1c-.08-.35-.25-.42-.57-.29a1.06,1.06,0,0,1-1.09,0,1.81,1.81,0,0,1-.8-1.21,3,3,0,0,1,0-.6c0-.59.12-1.18.13-1.78a20.62,20.62,0,0,1,.7-3.89c.2-.94.37-1.89.61-2.82.36-1.47.76-2.94,1.16-4.4a1.11,1.11,0,0,0-.42-1.27,6.42,6.42,0,0,1-1.9-2.63,15.1,15.1,0,0,1-.7-2,1.87,1.87,0,0,1,.12-1.52,5.4,5.4,0,0,0,.33-.74c.31-.85.6-1.71.93-2.56a6.46,6.46,0,0,1,.42-.83c.28-.47.58-.94.87-1.41a3,3,0,0,0,.34-1,5.93,5.93,0,0,1,.3-1.19,1.5,1.5,0,0,1,1.13-1c.34-.08.69-.12,1-.19a4.34,4.34,0,0,0,.73-.19c.49-.2,1-.42,1.44-.64a2.22,2.22,0,0,0,.38-.18.58.58,0,0,0,.27-.69,9.26,9.26,0,0,0-.26-.9,1.28,1.28,0,0,0-.29-.41c-.21-.2-.46-.37-.68-.57a.92.92,0,0,1,.11-1.52,2.4,2.4,0,0,1,.53-.27,1.21,1.21,0,0,0,.75-1,2.14,2.14,0,0,1,2.1-2,2.21,2.21,0,0,1,2.62,1.57,6.56,6.56,0,0,1,.27,1.08.76.76,0,0,0,.53.69,2.82,2.82,0,0,1,.49.25.91.91,0,0,1,.32,1.41,2.55,2.55,0,0,1-.67.64,1.77,1.77,0,0,0-.78,1c-.06.21-.18.42-.23.64a.88.88,0,0,0,0,.48,4,4,0,0,0,1.5,2A.6.6,0,0,0,74,90a.45.45,0,0,0,.66-.26,7.6,7.6,0,0,1,.37-.76,3.12,3.12,0,0,1,2-1.35,1.74,1.74,0,0,1,1.5.41,4.09,4.09,0,0,1,1,1.23,1.88,1.88,0,0,0,1.18,1,.85.85,0,0,1,.65,1.18c-.12.41-.3.79-.46,1.19s-.25.54-.36.82,0,.49.29.57.69.13,1,.2l.79.17a3,3,0,0,1,1.69,1.14,12.68,12.68,0,0,0,2.2,2.13l.9.71a4.79,4.79,0,0,1,1.25,1.54,1.66,1.66,0,0,1,.12,1.44,5.08,5.08,0,0,1-.52,1,3,3,0,0,0-.51,1.06,1.33,1.33,0,0,1-.32.58.59.59,0,0,1-1,0,5.28,5.28,0,0,1-.38-.75,2.74,2.74,0,0,0-.21-.42,4.46,4.46,0,0,1-.65-1.42,4,4,0,0,0-.27-.76,1.75,1.75,0,0,0-1.41-.91.51.51,0,0,0-.55.48,2.09,2.09,0,0,0,0,.66c.06.44.15.87.23,1.3a1,1,0,0,0,.36.61l.43.34a10.66,10.66,0,0,1,3.09,3.8,7.5,7.5,0,0,1,.46,1.41,11.45,11.45,0,0,1-.32,5.92,14.08,14.08,0,0,0-.33,1.62c-.11.67-.15,1.35-.29,2a6.42,6.42,0,0,0,.09,2.86,17.59,17.59,0,0,1,.33,1.76,4.7,4.7,0,0,1,0,1.06,20.26,20.26,0,0,0,.2,6,1.72,1.72,0,0,1,.06.55.92.92,0,0,1-.13.56c-.44.49-.83,1.07-1.56,1.16a5.83,5.83,0,0,1-.72.06c-.45,0-.91,0-1.36-.07a.89.89,0,0,1-1-1.05,6.77,6.77,0,0,1,.15-1.1,19.09,19.09,0,0,0,.44-3.11,13,13,0,0,1,.34-2.7,6,6,0,0,0,0-2,6.4,6.4,0,0,0-.52-2.13,3.61,3.61,0,0,1-.17-1.93,14,14,0,0,0,.18-1.43c0-.71,0-1.42,0-2.12a4.46,4.46,0,0,0-.24-1,.66.66,0,0,0-.17-.24c-.23-.22-.42-.2-.58.08a2.3,2.3,0,0,0-.24,1.52c.1.89.24,1.77.32,2.66a2.82,2.82,0,0,1-.1,1c-.24.8-.54,1.58-.79,2.38A10.18,10.18,0,0,0,81,125.6a2.78,2.78,0,0,1-.33,1.92,1.3,1.3,0,0,1-1.35.7,1.13,1.13,0,0,1-1.09-1.15,1.64,1.64,0,0,1,.09-.58.94.94,0,0,0-.33-1.14l-.66-.47a1.57,1.57,0,0,1-.67-1.93c.26-.83.53-1.65.86-2.45a29.7,29.7,0,0,0,1-3.15,3.25,3.25,0,0,0,.11-1.39c-.11-.67-.15-1.35-.26-2a5.15,5.15,0,0,0-.32-1.1c-.32-.78-.7-1.55-1-2.34a6.53,6.53,0,0,1-.36-2.52c0-.61,0-1.21,0-1.82a3,3,0,0,0-.91-2.06.7.7,0,0,0-.79-.25.89.89,0,0,0-.67.7,3.85,3.85,0,0,0-.09.76,19.11,19.11,0,0,1-.75,4.43c-.35,1.26-.77,2.49-1.22,3.71a3.6,3.6,0,0,0-.19,1.59c.09,1,.17,2,.25,3a9,9,0,0,0,.53,2.1c.28.84.54,1.7.82,2.55a1.3,1.3,0,0,1-.26,1.34,9.86,9.86,0,0,0-.62.92.44.44,0,0,0,0,.61l.08.1a2.15,2.15,0,0,1,.29,2.46c-.21.5-.47,1-.72,1.45a1.38,1.38,0,0,1-1.48.77,1,1,0,0,1-.8-.62,4.23,4.23,0,0,1-.28-1.8c0-.42,0-.85,0-1.27a1.1,1.1,0,0,0-.34-.89,2.74,2.74,0,0,1-.84-2.19c0-.41,0-.82,0-1.24s-.06-1-.11-1.48c0-.34-.19-.43-.54-.32l-.11,0a1.22,1.22,0,0,1-1.38-.25c-.56-.48-.67-.45-.91.26a6.43,6.43,0,0,0-.25,2.47c0,.72.09,1.44.13,2.17a2,2,0,0,1-.28,1.18,1.83,1.83,0,0,0-.23,1.07,13.85,13.85,0,0,0,.2,1.42,4.62,4.62,0,0,1,.13,1.81c-.13.65-.35.84-1,.88H64Zm-.24-33.85a.54.54,0,0,0,0-.18c0-.17-.07-.33-.12-.49a.19.19,0,0,0-.31-.1,1.09,1.09,0,0,0-.17,1.35c.16.19.36.18.46-.06A3.07,3.07,0,0,0,63.76,97.73Z"/><path class="cls-1" d="M153.75,100.43c.05,1.44.1,2.76.13,4.07a6.9,6.9,0,0,1-.59,3.07,1.32,1.32,0,0,0-.11.83c.11.58.23,1.16.37,1.74.23.91.47,1.81.73,2.71.1.33.29.64.42,1,.24.56.5,1.12.69,1.69a1.26,1.26,0,0,1-.06.74,1.5,1.5,0,0,0,0,1.16,2.62,2.62,0,0,0,1.35,1.46,2.42,2.42,0,0,0,.53.13l2.2.22a1.84,1.84,0,0,1,.42.07c.54.14.67.49.38,1a3.17,3.17,0,0,1-2,1.43c-.36.08-.73.11-1.1.17a4.37,4.37,0,0,0-1,.2,1.89,1.89,0,0,1-2.59-1.46c-.12-.55-.12-1.13-.2-1.69a6.52,6.52,0,0,0-.17-1,1,1,0,0,0-.8-.74c-.24-.05-.47-.11-.71-.15a1.55,1.55,0,0,1-1.07-.7c-.23-.34-.38-.33-.61,0s-.34.56-.5.84a2,2,0,0,1-.91.81.8.8,0,0,0-.31,1.32,4.59,4.59,0,0,0,1.09.87,10.85,10.85,0,0,0,1.69.88,3.92,3.92,0,0,1,.87.59.54.54,0,0,1-.43,1c-.64-.08-1.29-.18-1.93-.31a11.24,11.24,0,0,1-1.1-.3,1.39,1.39,0,0,0-1.11.1,2.93,2.93,0,0,1-2.08.2,1.08,1.08,0,0,1-.88-.92,2.59,2.59,0,0,1,.19-1.62c.19-.44.36-.89.52-1.34a1.08,1.08,0,0,0-.11-.94l-.21-.37a1.39,1.39,0,0,1-.16-1.07c.24-.91.46-1.82.78-2.7a18,18,0,0,1,.84-1.71,14,14,0,0,0,.57-1.33c.14-.37.05-.54-.31-.7a3.29,3.29,0,0,0-.44-.16,2.11,2.11,0,0,1-1.22-1,13.59,13.59,0,0,1-1.69-4.52c-.25-1.18-.59-2.34-.89-3.5a2.33,2.33,0,0,0-.11-.28c-.11-.25-.19-.3-.45-.28a1.55,1.55,0,0,1-.21,0c-.59.07-.7.4-.48.81a3.8,3.8,0,0,1,.23.59c.06.17.09.37-.09.46a.53.53,0,0,1-.43,0,4.92,4.92,0,0,1-2-2.34c-.12-.35-.12-.73-.22-1.08a3.92,3.92,0,0,0-.29-.74c-.12-.28-.27-.56-.4-.84s-.38-.85-.6-1.26a4.75,4.75,0,0,1-.68-2c-.06-.9-.24-1.77-.36-2.65a36,36,0,0,1-.47-4.27c0-.72.06-1.44.1-2.16a10.13,10.13,0,0,0-.16-2.58,3.86,3.86,0,0,1,0-1,4.09,4.09,0,0,0-.12-1.26,1.24,1.24,0,0,1,.26-1.15A4.14,4.14,0,0,1,138,76.91l1.44-.38c1-.26,1.24-1,.71-2a1.49,1.49,0,0,0-.15-.2c-.49-.5-1-1-1.46-1.48a4.28,4.28,0,0,0-.61-.4,7.47,7.47,0,0,1-.93-.66.74.74,0,0,1,.15-1.3,4.92,4.92,0,0,1,.45-.24,1,1,0,0,0,.58-1c0-.27,0-.53,0-.8a2.29,2.29,0,0,1,1.05-1.86A3.59,3.59,0,0,1,141.9,66a1.94,1.94,0,0,1,1.57,1.1c.16.35.31.7.46,1.05.07.16.12.32.19.47a1.12,1.12,0,0,0,1.11.71,1.72,1.72,0,0,1,.7.14.57.57,0,0,1,.21,1,4.68,4.68,0,0,1-.39.38A1.65,1.65,0,0,0,145.1,72a2.36,2.36,0,0,1-.13.63,3.27,3.27,0,0,0,.13,2.16,1.67,1.67,0,0,0,1.31,1.1c.42.07.84.15,1.26.18a2,2,0,0,1,1.88,1.36,4.27,4.27,0,0,1,.4,1.68,3.15,3.15,0,0,0,.36,1.34c.33.71.6,1.44.9,2.16l.45,1.11c.42,1,.83,2.07,1.27,3.1a16,16,0,0,0,.92,1.91,16.25,16.25,0,0,1,1.53,4,1.7,1.7,0,0,1,0,.71,2.27,2.27,0,0,0,.31,1.55,1.07,1.07,0,0,1,.11,1,1.49,1.49,0,0,0-.05.7c0,.3.13.58.16.88.05.46-.26.69-.65.47a.54.54,0,0,0-.63,0,2.71,2.71,0,0,1-.35.24,1.1,1.1,0,0,0-.56,1C153.76,99.79,153.75,100.17,153.75,100.43ZM141,92.24h0a2.64,2.64,0,0,0,0-.63c-.27-1-.55-1.93-.85-2.89,0-.15-.13-.37-.33-.31s-.2.21-.28.34a.59.59,0,0,0-.05.2,2.22,2.22,0,0,0,0,1.17c.19.68.38,1.36.6,2a4.74,4.74,0,0,0,.44.87.36.36,0,0,0,.28.12c.06,0,.14-.14.15-.22S141,92.47,141,92.24Zm.34,5.49c.19-.27.25-.74-.21-.87A.57.57,0,0,0,141.31,97.73Z"/><path class="cls-2" d="M138.85,28h3.9V42.57h.13c.81-1.17,1.62-2.24,2.38-3.23L154.5,28h4.84L148.4,40.82l11.8,17.4h-4.62l-10-14.84-2.87,3.32V58.22h-3.9Z"/><path class="cls-2" d="M188.22,42.79c0,10.41-6.32,15.92-14,15.92-8,0-13.59-6.18-13.59-15.33,0-9.6,6-15.88,14-15.88C182.89,27.5,188.22,33.82,188.22,42.79Zm-23.45.5c0,6.46,3.5,12.24,9.64,12.24S184.1,49.84,184.1,43c0-6-3.14-12.28-9.64-12.28S164.77,36.65,164.77,43.29Z"/><path class="cls-2" d="M218.76,45c-.22-4.22-.49-9.29-.45-13.05h-.13c-1,3.54-2.29,7.31-3.81,11.48L209,58h-3l-4.89-14.39c-1.43-4.26-2.64-8.17-3.5-11.75h-.08c-.09,3.76-.32,8.83-.59,13.36l-.81,13h-3.72L194.59,28h5l5.16,14.63c1.25,3.72,2.28,7,3.05,10.18h.13c.76-3,1.84-6.37,3.18-10.18L216.48,28h5l1.89,30.23h-3.81Z"/><path class="cls-2" d="M245,44.05H233.25V55h13.09v3.27h-17V28h16.33v3.28H233.25v9.55H245Z"/><path class="cls-2" d="M251.41,28.4a55.58,55.58,0,0,1,8.29-.63c5.61,0,9.6,1.3,12.25,3.77s4.26,6,4.26,10.85-1.53,9-4.35,11.75-7.49,4.35-13.37,4.35a61.46,61.46,0,0,1-7.08-.36Zm3.9,26.73a24.66,24.66,0,0,0,3.95.22c8.34,0,12.87-4.66,12.87-12.82,0-7.14-4-11.66-12.25-11.66a21.82,21.82,0,0,0-4.57.4Z"/><path class="cls-2" d="M285.18,28V58.22h-3.91V28Z"/><path class="cls-2" d="M307.64,44.05H295.89V55H309v3.27H292V28h16.33v3.28H295.89v9.55h11.75Z"/><path class="cls-2" d="M318,28V40.64h14.62V28h3.94V58.22h-3.94V44.05H318V58.22h-3.9V28Z"/><path class="cls-2" d="M347.2,28v17.9c0,6.77,3,9.64,7,9.64,4.48,0,7.35-3,7.35-9.64V28h4V45.62c0,9.28-4.89,13.09-11.44,13.09-6.19,0-10.85-3.54-10.85-12.91V28Z"/><path class="cls-2" d="M371.77,53.47a13.91,13.91,0,0,0,7,2c4,0,6.32-2.11,6.32-5.16,0-2.82-1.61-4.44-5.7-6-4.93-1.74-8-4.3-8-8.56,0-4.71,3.9-8.21,9.78-8.21A13.75,13.75,0,0,1,387.87,29l-1.08,3.19a12,12,0,0,0-5.74-1.44c-4.12,0-5.69,2.47-5.69,4.53,0,2.83,1.84,4.22,6,5.83,5.11,2,7.71,4.44,7.71,8.88,0,4.66-3.45,8.7-10.58,8.7a15.61,15.61,0,0,1-7.72-1.93Z"/><path class="cls-2" d="M410.07,44.05H398.32V55h13.09v3.27h-17V28h16.32v3.28H398.32v9.55h11.75Z"/><path class="cls-2" d="M422.94,31.31h-9.19V28h22.37v3.32h-9.23V58.22h-3.95Z"/><text class="cls-3" transform="translate(199.82 100.69)">Hold beskeder</text></svg>